<svg width="24.000000" height="24.000000" viewBox="0 0 24 24" fill="none" xmlns="http://www.w3.org/2000/svg" xmlns:xlink="http://www.w3.org/1999/xlink">
	<desc>
			Created with Pixso.
	</desc>
	<defs/>
	<rect id="Icon" width="24.000000" height="24.000000" fill="#FFFFFF" fill-opacity="0"/>
	<path id="Vector" d="M15.5 15L14.71 15L14.43 14.73C15.41 13.59 16 12.11 16 10.5C16 6.91 13.09 4 9.5 4C5.90997 4 3 6.91 3 10.5C3 14.09 5.90997 17 9.5 17C11.11 17 12.59 16.41 13.73 15.43L14 15.71L14 16.5L19 21.49L20.49 20L15.5 15ZM9.5 15C7.01001 15 5 12.99 5 10.5C5 8.00999 7.01001 6 9.5 6C11.99 6 14 8.00999 14 10.5C14 12.99 11.99 15 9.5 15Z" fill="#000000" fill-opacity="0.540000" fill-rule="nonzero"/>
</svg>
